<svg xmlns="http://www.w3.org/2000/svg" width="540" height="392.011" viewBox="0 0 540 392.011">
  <g id="Group_62" data-name="Group 62" transform="translate(-5234 722.949)">
    <path id="Path_6" data-name="Path 6" d="M0,0A110.177,110.177,0,0,1,110.177,110.177,110.177,110.177,0,0,1,0,220.354Z" transform="translate(5398.913 -567.209) rotate(-90)" fill="#ff7f41"/>
    <path id="Polygon_6" data-name="Polygon 6" d="M270,0,540,237H0Z" transform="translate(5774 -331) rotate(180)" fill="#54b0bf"/>
    <path id="Polygon_8" data-name="Polygon 8" d="M66.5,0,133,111H0Z" transform="translate(5641 -679)" fill="#f9f3ef"/>
    <path id="Path_7" data-name="Path 7" d="M270.091,0l83.978,73.961L0,237.087Z" transform="translate(5773.829 -330.937) rotate(180)" fill="#399aaa"/>
    <g id="Group_57" data-name="Group 57" transform="translate(5234 -722.949)">
      <path id="Polygon_4" data-name="Polygon 4" d="M89.293,0l89.293,154.949H0Z" transform="translate(3.892)" fill="#f9f3ef"/>
      <path id="Path_8" data-name="Path 8" d="M121.443-73.633,28.3,81.284H98.536Z" transform="translate(-28.302 73.644)" fill="#efe5df"/>
    </g>
    <path id="Path_11" data-name="Path 11" d="M45.5,0,95.764,84.17H33.5Z" transform="translate(5678.065 -652.194)" fill="#efe5df"/>
    <path id="Path_30" data-name="Path 30" d="M270.091,0l83.978,73.961L0,237.087Z" transform="translate(5773.829 -330.937) rotate(180)" fill="#399aaa"/>
  </g>
</svg>
