<svg xmlns="http://www.w3.org/2000/svg" width="42.477" height="35.4" viewBox="0 0 42.477 35.4">
  <g id="book" transform="translate(-1.125 -3.375)">
    <path id="Path_14" data-name="Path 14" d="M17.6,5.676c-3.2-1.527-7.665-2.274-13.648-2.3a2.775,2.775,0,0,0-1.586.472A2.832,2.832,0,0,0,1.125,6.2V31.513a2.857,2.857,0,0,0,2.832,3c6.289,0,12.6.588,16.375,4.159a.364.364,0,0,0,.614-.266V8.58a1.406,1.406,0,0,0-.483-1.062A12.654,12.654,0,0,0,17.6,5.676Z" transform="translate(0 0)" fill="#54b0bf"/>
    <path id="Path_15" data-name="Path 15" d="M37.7,3.844a2.772,2.772,0,0,0-1.586-.469c-5.983.026-10.452.77-13.648,2.3a12.68,12.68,0,0,0-2.859,1.839,1.409,1.409,0,0,0-.482,1.062V38.407a.347.347,0,0,0,.591.249c2.272-2.256,6.258-4.143,16.4-4.142a2.832,2.832,0,0,0,2.832-2.832V6.2A2.832,2.832,0,0,0,37.7,3.844Z" transform="translate(4.652)" fill="#54b0bf"/>
  </g>
</svg>
