<svg xmlns="http://www.w3.org/2000/svg" width="44.382" height="36.06" viewBox="0 0 44.382 36.06">
  <g id="briefcase-fill" transform="translate(0 -2.25)">
    <path id="Path_16" data-name="Path 16" d="M0,31.085a4.161,4.161,0,0,0,4.161,4.161h36.06a4.161,4.161,0,0,0,4.161-4.161V15.412L22.548,21.23a1.387,1.387,0,0,1-.716,0L0,15.412Z" transform="translate(0 3.065)" fill="#54b0bf" fill-rule="evenodd"/>
    <path id="Path_17" data-name="Path 17" d="M0,11.959A4.161,4.161,0,0,1,4.161,7.8h36.06a4.161,4.161,0,0,1,4.161,4.161V15.8l-21.12,5.63a4.161,4.161,0,0,1-2.141,0L0,15.8ZM13.869,6.411A4.161,4.161,0,0,1,18.03,2.25h8.322a4.161,4.161,0,0,1,4.161,4.161V7.8H27.739V6.411a1.387,1.387,0,0,0-1.387-1.387H18.03a1.387,1.387,0,0,0-1.387,1.387V7.8H13.869Z" transform="translate(0 0)" fill="#54b0bf" fill-rule="evenodd"/>
  </g>
</svg>
