<svg xmlns="http://www.w3.org/2000/svg" width="44" height="38.72" viewBox="0 0 44 38.72">
  <g id="certificate-solid" transform="translate(-2 -6)">
    <path id="Path_12" data-name="Path 12" d="M25.375,39H4.75A2.75,2.75,0,0,1,2,36.25V8.75A2.75,2.75,0,0,1,4.75,6h38.5A2.75,2.75,0,0,1,46,8.75V23.009A11.468,11.468,0,0,0,27.451,36.47l-1.279,1.567ZM8.875,14.25v2.2H32.25v-2.2Zm0,7.7H24v-2.2H8.875Zm0,9.625h13.75v-2.2H8.875Z" fill="#54b0bf"/>
    <path id="Path_13" data-name="Path 13" d="M38.608,25.985A8.759,8.759,0,1,0,23.8,32.3l-2.668,3.259,1.237,4.964L27.4,34.386a8.608,8.608,0,0,0,4.881,0l5.032,6.133,1.238-4.964L35.885,32.3A8.717,8.717,0,0,0,38.608,25.985Zm-14.767,0a6,6,0,1,0,.014,0Z" transform="translate(7.159 4.201)" fill="#54b0bf"/>
  </g>
</svg>
