<svg xmlns="http://www.w3.org/2000/svg" width="53.009" height="35.341" viewBox="0 0 53.009 35.341">
  <path id="graduation-cap" d="M40.816,16.29l.414,7.271q.093,1.587-1.886,2.945a15.961,15.961,0,0,1-5.407,2.151,32.917,32.917,0,0,1-7.432.794,32.917,32.917,0,0,1-7.432-.794,15.961,15.961,0,0,1-5.407-2.151q-1.979-1.358-1.886-2.945l.414-7.271L25.4,20.454a3.88,3.88,0,0,0,2.209,0ZM53.009,8.835a.7.7,0,0,1-.507.713l-25.768,8.1a1.132,1.132,0,0,1-.459,0l-15-4.738A5.613,5.613,0,0,0,9.64,15.473a14.667,14.667,0,0,0-.782,4.107,2.707,2.707,0,0,1,1.449,2.508,2.781,2.781,0,0,1-1.334,2.462l1.334,9.963a.75.75,0,0,1-.736.829H5.154a.75.75,0,0,1-.736-.829l1.334-9.963a2.933,2.933,0,0,1,.162-5.015,14.271,14.271,0,0,1,2.254-7.592L.507,9.548a.755.755,0,0,1,0-1.425L26.275.024a1.132,1.132,0,0,1,.459,0L52.5,8.122a.7.7,0,0,1,.507.713Z" fill="#54b0bf"/>
</svg>
