<svg xmlns="http://www.w3.org/2000/svg" width="21.07" height="29.872" viewBox="0 0 21.07 29.872">
  <g id="Group_5" data-name="Group 5" transform="translate(-8 -2)">
    <path id="Path_1" data-name="Path 1" d="M16.951,6A3.951,3.951,0,0,0,13,9.951v2.634a3.951,3.951,0,1,0,7.9,0V9.951A3.951,3.951,0,0,0,16.951,6ZM15.634,9.951a1.317,1.317,0,0,1,2.634,0v2.634a1.317,1.317,0,1,1-2.634,0Z" transform="translate(1.584 0.599)" fill="#f9f3ef" fill-rule="evenodd"/>
    <path id="Path_2" data-name="Path 2" d="M18.535,2C12.717,2,8,5.821,8,10.535v12.8c0,4.714,4.717,8.535,10.535,8.535S29.07,28.051,29.07,23.337v-12.8C29.07,5.821,24.353,2,18.535,2Zm-7.9,8.535c0-3.535,3.537-6.4,7.9-6.4s7.9,2.866,7.9,6.4v12.8c0,3.535-3.537,6.4-7.9,6.4s-7.9-2.866-7.9-6.4Z" fill="#f9f3ef" fill-rule="evenodd"/>
  </g>
</svg>
